<mxfile host="app.diagrams.net" modified="2020-03-30T11:47:24.187Z" agent="Mozilla/5.0 (Macintosh; Intel Mac OS X 10_14_6) AppleWebKit/537.36 (KHTML, like Gecko) Chrome/80.0.3987.149 Safari/537.36" etag="56q0P4PEXD6cIensavGa" version="12.8.8" type="github">
  <diagram id="G-P-OJ7w4pr3d5O-FjNl" name="Page-1">
    <mxGraphModel dx="2408" dy="969" grid="0" gridSize="10" guides="1" tooltips="1" connect="1" arrows="1" fold="1" page="1" pageScale="1" pageWidth="827" pageHeight="1169" math="0" shadow="0">
      <root>
        <mxCell id="0" />
        <mxCell id="1" parent="0" />
        <mxCell id="ilKDNeLHNMvyYoR8y2It-266" value="" style="rounded=0;whiteSpace=wrap;html=1;fontSize=18;fillColor=#fff2cc;strokeColor=#d6b656;" vertex="1" parent="1">
          <mxGeometry x="280" y="343.5" width="473" height="422.5" as="geometry" />
        </mxCell>
        <mxCell id="ilKDNeLHNMvyYoR8y2It-230" value="" style="rounded=0;whiteSpace=wrap;html=1;dashed=1;fontSize=24;fillColor=#dae8fc;strokeColor=#6c8ebf;" vertex="1" parent="1">
          <mxGeometry x="835" y="1180" width="961" height="681" as="geometry" />
        </mxCell>
        <mxCell id="ilKDNeLHNMvyYoR8y2It-225" value="" style="rounded=0;whiteSpace=wrap;html=1;fontSize=32;fillColor=none;dashed=1;" vertex="1" parent="1">
          <mxGeometry x="1037" y="1372.5" width="625" height="91" as="geometry" />
        </mxCell>
        <mxCell id="ilKDNeLHNMvyYoR8y2It-206" value="" style="rounded=0;whiteSpace=wrap;html=1;fontSize=32;fillColor=#d5e8d4;dashed=1;strokeColor=#82b366;" vertex="1" parent="1">
          <mxGeometry x="1035" y="1050" width="627" height="92" as="geometry" />
        </mxCell>
        <mxCell id="ilKDNeLHNMvyYoR8y2It-201" value="" style="rounded=0;whiteSpace=wrap;html=1;fontSize=32;fillColor=#d5e8d4;dashed=1;strokeColor=#82b366;" vertex="1" parent="1">
          <mxGeometry x="1867" y="1078" width="201" height="283" as="geometry" />
        </mxCell>
        <mxCell id="ilKDNeLHNMvyYoR8y2It-242" style="edgeStyle=none;rounded=0;orthogonalLoop=1;jettySize=auto;html=1;exitX=0.5;exitY=1;exitDx=0;exitDy=0;entryX=0.5;entryY=0;entryDx=0;entryDy=0;fontSize=24;" edge="1" parent="1" source="ilKDNeLHNMvyYoR8y2It-223" target="ilKDNeLHNMvyYoR8y2It-236">
          <mxGeometry relative="1" as="geometry" />
        </mxCell>
        <mxCell id="ilKDNeLHNMvyYoR8y2It-223" value="" style="rounded=0;whiteSpace=wrap;html=1;fontSize=32;fillColor=none;dashed=1;" vertex="1" parent="1">
          <mxGeometry x="1028" y="1729.5" width="625" height="91" as="geometry" />
        </mxCell>
        <mxCell id="ilKDNeLHNMvyYoR8y2It-227" style="edgeStyle=none;rounded=0;orthogonalLoop=1;jettySize=auto;html=1;exitX=0.5;exitY=1;exitDx=0;exitDy=0;entryX=0.371;entryY=0.015;entryDx=0;entryDy=0;fontSize=24;entryPerimeter=0;" edge="1" parent="1" source="ilKDNeLHNMvyYoR8y2It-191" target="ilKDNeLHNMvyYoR8y2It-223">
          <mxGeometry relative="1" as="geometry" />
        </mxCell>
        <mxCell id="ilKDNeLHNMvyYoR8y2It-191" value="" style="rounded=0;whiteSpace=wrap;html=1;fontSize=32;fillColor=none;dashed=1;" vertex="1" parent="1">
          <mxGeometry x="1044" y="1563" width="429" height="91" as="geometry" />
        </mxCell>
        <mxCell id="ilKDNeLHNMvyYoR8y2It-157" value="" style="rounded=0;whiteSpace=wrap;html=1;fontSize=18;dashed=1;" vertex="1" parent="1">
          <mxGeometry x="1390" y="80" width="200" height="520" as="geometry" />
        </mxCell>
        <mxCell id="ilKDNeLHNMvyYoR8y2It-151" value="" style="rounded=0;whiteSpace=wrap;html=1;fontSize=18;fillColor=#fff2cc;strokeColor=#d6b656;" vertex="1" parent="1">
          <mxGeometry x="2101" y="82" width="269" height="490" as="geometry" />
        </mxCell>
        <mxCell id="ilKDNeLHNMvyYoR8y2It-3" value="" style="rounded=0;whiteSpace=wrap;html=1;" vertex="1" parent="1">
          <mxGeometry x="-332" y="19" width="460" height="970" as="geometry" />
        </mxCell>
        <mxCell id="ilKDNeLHNMvyYoR8y2It-4" value="创编服务" style="text;html=1;strokeColor=none;fillColor=none;align=center;verticalAlign=middle;whiteSpace=wrap;rounded=0;dashed=1;fontSize=22;" vertex="1" parent="1">
          <mxGeometry x="-202" y="29" width="165.5" height="20" as="geometry" />
        </mxCell>
        <mxCell id="ilKDNeLHNMvyYoR8y2It-5" value="" style="rounded=1;whiteSpace=wrap;html=1;" vertex="1" parent="1">
          <mxGeometry x="-302" y="69" width="390" height="350" as="geometry" />
        </mxCell>
        <mxCell id="ilKDNeLHNMvyYoR8y2It-6" value="PSM: ad.platform.site" style="text;html=1;strokeColor=none;fillColor=none;align=center;verticalAlign=middle;whiteSpace=wrap;rounded=0;" vertex="1" parent="1">
          <mxGeometry x="-212" y="79" width="170" height="20" as="geometry" />
        </mxCell>
        <mxCell id="ilKDNeLHNMvyYoR8y2It-23" value="... ..." style="text;html=1;strokeColor=none;fillColor=none;align=center;verticalAlign=middle;whiteSpace=wrap;rounded=0;fontSize=30;" vertex="1" parent="1">
          <mxGeometry x="-237.5" y="279" width="180" height="20" as="geometry" />
        </mxCell>
        <mxCell id="ilKDNeLHNMvyYoR8y2It-24" value="" style="rounded=1;whiteSpace=wrap;html=1;" vertex="1" parent="1">
          <mxGeometry x="-302" y="449" width="390" height="150" as="geometry" />
        </mxCell>
        <mxCell id="ilKDNeLHNMvyYoR8y2It-25" value="PSM: ad.oe.*" style="text;html=1;strokeColor=none;fillColor=none;align=center;verticalAlign=middle;whiteSpace=wrap;rounded=0;" vertex="1" parent="1">
          <mxGeometry x="-212" y="459" width="170" height="20" as="geometry" />
        </mxCell>
        <mxCell id="ilKDNeLHNMvyYoR8y2It-42" value="" style="group" vertex="1" connectable="0" parent="1">
          <mxGeometry x="-273" y="124" width="251" height="65" as="geometry" />
        </mxCell>
        <mxCell id="ilKDNeLHNMvyYoR8y2It-9" value="" style="rounded=0;whiteSpace=wrap;html=1;" vertex="1" parent="ilKDNeLHNMvyYoR8y2It-42">
          <mxGeometry width="251" height="65" as="geometry" />
        </mxCell>
        <mxCell id="ilKDNeLHNMvyYoR8y2It-11" value="业务模块处理流程" style="text;html=1;" vertex="1" parent="ilKDNeLHNMvyYoR8y2It-42">
          <mxGeometry x="21" y="17.5" width="140" height="30" as="geometry" />
        </mxCell>
        <mxCell id="ilKDNeLHNMvyYoR8y2It-12" value="生成日志" style="rounded=1;whiteSpace=wrap;html=1;" vertex="1" parent="ilKDNeLHNMvyYoR8y2It-42">
          <mxGeometry x="161" y="15" width="70" height="32.5" as="geometry" />
        </mxCell>
        <mxCell id="ilKDNeLHNMvyYoR8y2It-43" value="" style="group" vertex="1" connectable="0" parent="1">
          <mxGeometry x="-272" y="209" width="251" height="65" as="geometry" />
        </mxCell>
        <mxCell id="ilKDNeLHNMvyYoR8y2It-44" value="" style="rounded=0;whiteSpace=wrap;html=1;" vertex="1" parent="ilKDNeLHNMvyYoR8y2It-43">
          <mxGeometry width="251" height="65" as="geometry" />
        </mxCell>
        <mxCell id="ilKDNeLHNMvyYoR8y2It-45" value="业务模块处理流程" style="text;html=1;" vertex="1" parent="ilKDNeLHNMvyYoR8y2It-43">
          <mxGeometry x="21" y="17.5" width="140" height="30" as="geometry" />
        </mxCell>
        <mxCell id="ilKDNeLHNMvyYoR8y2It-46" value="生成日志" style="rounded=1;whiteSpace=wrap;html=1;" vertex="1" parent="ilKDNeLHNMvyYoR8y2It-43">
          <mxGeometry x="161" y="15" width="70" height="32.5" as="geometry" />
        </mxCell>
        <mxCell id="ilKDNeLHNMvyYoR8y2It-47" value="" style="group" vertex="1" connectable="0" parent="1">
          <mxGeometry x="-269" y="316" width="251" height="65" as="geometry" />
        </mxCell>
        <mxCell id="ilKDNeLHNMvyYoR8y2It-48" value="" style="rounded=0;whiteSpace=wrap;html=1;" vertex="1" parent="ilKDNeLHNMvyYoR8y2It-47">
          <mxGeometry width="251" height="65" as="geometry" />
        </mxCell>
        <mxCell id="ilKDNeLHNMvyYoR8y2It-49" value="业务模块处理流程" style="text;html=1;" vertex="1" parent="ilKDNeLHNMvyYoR8y2It-47">
          <mxGeometry x="21" y="17.5" width="140" height="30" as="geometry" />
        </mxCell>
        <mxCell id="ilKDNeLHNMvyYoR8y2It-50" value="生成日志" style="rounded=1;whiteSpace=wrap;html=1;" vertex="1" parent="ilKDNeLHNMvyYoR8y2It-47">
          <mxGeometry x="161" y="15" width="70" height="32.5" as="geometry" />
        </mxCell>
        <mxCell id="ilKDNeLHNMvyYoR8y2It-279" style="edgeStyle=none;rounded=0;orthogonalLoop=1;jettySize=auto;html=1;exitX=1;exitY=0.5;exitDx=0;exitDy=0;fontSize=24;" edge="1" parent="1" source="ilKDNeLHNMvyYoR8y2It-51">
          <mxGeometry relative="1" as="geometry">
            <mxPoint x="311" y="425" as="targetPoint" />
          </mxGeometry>
        </mxCell>
        <mxCell id="ilKDNeLHNMvyYoR8y2It-51" value="写入" style="ellipse;whiteSpace=wrap;html=1;aspect=fixed;fontSize=18;" vertex="1" parent="1">
          <mxGeometry x="18" y="215.25" width="50" height="50" as="geometry" />
        </mxCell>
        <mxCell id="ilKDNeLHNMvyYoR8y2It-52" style="edgeStyle=orthogonalEdgeStyle;rounded=0;orthogonalLoop=1;jettySize=auto;html=1;exitX=1;exitY=0.5;exitDx=0;exitDy=0;entryX=0.5;entryY=0;entryDx=0;entryDy=0;fontSize=18;" edge="1" parent="1" source="ilKDNeLHNMvyYoR8y2It-12" target="ilKDNeLHNMvyYoR8y2It-51">
          <mxGeometry relative="1" as="geometry" />
        </mxCell>
        <mxCell id="ilKDNeLHNMvyYoR8y2It-53" style="edgeStyle=orthogonalEdgeStyle;rounded=0;orthogonalLoop=1;jettySize=auto;html=1;exitX=1;exitY=0.5;exitDx=0;exitDy=0;fontSize=18;" edge="1" parent="1" source="ilKDNeLHNMvyYoR8y2It-46" target="ilKDNeLHNMvyYoR8y2It-51">
          <mxGeometry relative="1" as="geometry" />
        </mxCell>
        <mxCell id="ilKDNeLHNMvyYoR8y2It-54" style="edgeStyle=orthogonalEdgeStyle;rounded=0;orthogonalLoop=1;jettySize=auto;html=1;exitX=1;exitY=0.5;exitDx=0;exitDy=0;entryX=0.5;entryY=1;entryDx=0;entryDy=0;fontSize=18;" edge="1" parent="1" source="ilKDNeLHNMvyYoR8y2It-50" target="ilKDNeLHNMvyYoR8y2It-51">
          <mxGeometry relative="1" as="geometry" />
        </mxCell>
        <mxCell id="ilKDNeLHNMvyYoR8y2It-55" value="" style="group" vertex="1" connectable="0" parent="1">
          <mxGeometry x="-272" y="491" width="251" height="65" as="geometry" />
        </mxCell>
        <mxCell id="ilKDNeLHNMvyYoR8y2It-56" value="" style="rounded=0;whiteSpace=wrap;html=1;" vertex="1" parent="ilKDNeLHNMvyYoR8y2It-55">
          <mxGeometry width="251" height="65" as="geometry" />
        </mxCell>
        <mxCell id="ilKDNeLHNMvyYoR8y2It-57" value="业务模块处理流程" style="text;html=1;" vertex="1" parent="ilKDNeLHNMvyYoR8y2It-55">
          <mxGeometry x="21" y="17.5" width="140" height="30" as="geometry" />
        </mxCell>
        <mxCell id="ilKDNeLHNMvyYoR8y2It-58" value="生成日志" style="rounded=1;whiteSpace=wrap;html=1;" vertex="1" parent="ilKDNeLHNMvyYoR8y2It-55">
          <mxGeometry x="161" y="15" width="70" height="32.5" as="geometry" />
        </mxCell>
        <mxCell id="ilKDNeLHNMvyYoR8y2It-59" value="" style="group" vertex="1" connectable="0" parent="1">
          <mxGeometry x="-262" y="501" width="251" height="65" as="geometry" />
        </mxCell>
        <mxCell id="ilKDNeLHNMvyYoR8y2It-60" value="" style="rounded=0;whiteSpace=wrap;html=1;" vertex="1" parent="ilKDNeLHNMvyYoR8y2It-59">
          <mxGeometry width="251" height="65" as="geometry" />
        </mxCell>
        <mxCell id="ilKDNeLHNMvyYoR8y2It-61" value="业务模块处理流程" style="text;html=1;" vertex="1" parent="ilKDNeLHNMvyYoR8y2It-59">
          <mxGeometry x="21" y="17.5" width="140" height="30" as="geometry" />
        </mxCell>
        <mxCell id="ilKDNeLHNMvyYoR8y2It-62" value="生成日志" style="rounded=1;whiteSpace=wrap;html=1;" vertex="1" parent="ilKDNeLHNMvyYoR8y2It-59">
          <mxGeometry x="161" y="15" width="70" height="32.5" as="geometry" />
        </mxCell>
        <mxCell id="ilKDNeLHNMvyYoR8y2It-63" value="" style="group" vertex="1" connectable="0" parent="1">
          <mxGeometry x="-252" y="511" width="251" height="65" as="geometry" />
        </mxCell>
        <mxCell id="ilKDNeLHNMvyYoR8y2It-64" value="" style="rounded=0;whiteSpace=wrap;html=1;" vertex="1" parent="ilKDNeLHNMvyYoR8y2It-63">
          <mxGeometry width="251" height="65" as="geometry" />
        </mxCell>
        <mxCell id="ilKDNeLHNMvyYoR8y2It-65" value="业务模块处理流程" style="text;html=1;" vertex="1" parent="ilKDNeLHNMvyYoR8y2It-63">
          <mxGeometry x="21" y="17.5" width="140" height="30" as="geometry" />
        </mxCell>
        <mxCell id="ilKDNeLHNMvyYoR8y2It-66" value="生成日志" style="rounded=1;whiteSpace=wrap;html=1;" vertex="1" parent="ilKDNeLHNMvyYoR8y2It-63">
          <mxGeometry x="161" y="15" width="70" height="32.5" as="geometry" />
        </mxCell>
        <mxCell id="ilKDNeLHNMvyYoR8y2It-280" style="edgeStyle=none;rounded=0;orthogonalLoop=1;jettySize=auto;html=1;exitX=1;exitY=0.5;exitDx=0;exitDy=0;fontSize=24;entryX=0;entryY=0.5;entryDx=0;entryDy=0;" edge="1" parent="1" source="ilKDNeLHNMvyYoR8y2It-67" target="ilKDNeLHNMvyYoR8y2It-275">
          <mxGeometry relative="1" as="geometry">
            <mxPoint x="316" y="426" as="targetPoint" />
          </mxGeometry>
        </mxCell>
        <mxCell id="ilKDNeLHNMvyYoR8y2It-67" value="写入" style="ellipse;whiteSpace=wrap;html=1;aspect=fixed;fontSize=18;" vertex="1" parent="1">
          <mxGeometry x="18" y="517.5" width="50" height="50" as="geometry" />
        </mxCell>
        <mxCell id="ilKDNeLHNMvyYoR8y2It-70" style="edgeStyle=orthogonalEdgeStyle;rounded=0;orthogonalLoop=1;jettySize=auto;html=1;exitX=1;exitY=0.5;exitDx=0;exitDy=0;fontSize=18;" edge="1" parent="1" source="ilKDNeLHNMvyYoR8y2It-66" target="ilKDNeLHNMvyYoR8y2It-67">
          <mxGeometry relative="1" as="geometry" />
        </mxCell>
        <mxCell id="ilKDNeLHNMvyYoR8y2It-71" value="" style="rounded=1;whiteSpace=wrap;html=1;" vertex="1" parent="1">
          <mxGeometry x="-302" y="629" width="390" height="150" as="geometry" />
        </mxCell>
        <mxCell id="ilKDNeLHNMvyYoR8y2It-72" value="Consumer PSM:" style="text;html=1;strokeColor=none;fillColor=none;align=center;verticalAlign=middle;whiteSpace=wrap;rounded=0;" vertex="1" parent="1">
          <mxGeometry x="-212" y="639" width="170" height="20" as="geometry" />
        </mxCell>
        <mxCell id="ilKDNeLHNMvyYoR8y2It-73" value="" style="group" vertex="1" connectable="0" parent="1">
          <mxGeometry x="-272" y="671" width="251" height="65" as="geometry" />
        </mxCell>
        <mxCell id="ilKDNeLHNMvyYoR8y2It-74" value="" style="rounded=0;whiteSpace=wrap;html=1;" vertex="1" parent="ilKDNeLHNMvyYoR8y2It-73">
          <mxGeometry width="251" height="65" as="geometry" />
        </mxCell>
        <mxCell id="ilKDNeLHNMvyYoR8y2It-75" value="业务模块处理流程" style="text;html=1;" vertex="1" parent="ilKDNeLHNMvyYoR8y2It-73">
          <mxGeometry x="21" y="17.5" width="140" height="30" as="geometry" />
        </mxCell>
        <mxCell id="ilKDNeLHNMvyYoR8y2It-76" value="生成日志" style="rounded=1;whiteSpace=wrap;html=1;" vertex="1" parent="ilKDNeLHNMvyYoR8y2It-73">
          <mxGeometry x="161" y="15" width="70" height="32.5" as="geometry" />
        </mxCell>
        <mxCell id="ilKDNeLHNMvyYoR8y2It-77" value="" style="group" vertex="1" connectable="0" parent="1">
          <mxGeometry x="-262" y="681" width="251" height="65" as="geometry" />
        </mxCell>
        <mxCell id="ilKDNeLHNMvyYoR8y2It-78" value="" style="rounded=0;whiteSpace=wrap;html=1;" vertex="1" parent="ilKDNeLHNMvyYoR8y2It-77">
          <mxGeometry width="251" height="65" as="geometry" />
        </mxCell>
        <mxCell id="ilKDNeLHNMvyYoR8y2It-79" value="业务模块处理流程" style="text;html=1;" vertex="1" parent="ilKDNeLHNMvyYoR8y2It-77">
          <mxGeometry x="21" y="17.5" width="140" height="30" as="geometry" />
        </mxCell>
        <mxCell id="ilKDNeLHNMvyYoR8y2It-80" value="生成日志" style="rounded=1;whiteSpace=wrap;html=1;" vertex="1" parent="ilKDNeLHNMvyYoR8y2It-77">
          <mxGeometry x="161" y="15" width="70" height="32.5" as="geometry" />
        </mxCell>
        <mxCell id="ilKDNeLHNMvyYoR8y2It-81" value="" style="group" vertex="1" connectable="0" parent="1">
          <mxGeometry x="-252" y="691" width="251" height="65" as="geometry" />
        </mxCell>
        <mxCell id="ilKDNeLHNMvyYoR8y2It-82" value="" style="rounded=0;whiteSpace=wrap;html=1;" vertex="1" parent="ilKDNeLHNMvyYoR8y2It-81">
          <mxGeometry width="251" height="65" as="geometry" />
        </mxCell>
        <mxCell id="ilKDNeLHNMvyYoR8y2It-83" value="业务模块处理流程" style="text;html=1;" vertex="1" parent="ilKDNeLHNMvyYoR8y2It-81">
          <mxGeometry x="21" y="17.5" width="140" height="30" as="geometry" />
        </mxCell>
        <mxCell id="ilKDNeLHNMvyYoR8y2It-84" value="生成日志" style="rounded=1;whiteSpace=wrap;html=1;" vertex="1" parent="ilKDNeLHNMvyYoR8y2It-81">
          <mxGeometry x="161" y="15" width="70" height="32.5" as="geometry" />
        </mxCell>
        <mxCell id="ilKDNeLHNMvyYoR8y2It-281" style="edgeStyle=none;rounded=0;orthogonalLoop=1;jettySize=auto;html=1;exitX=1;exitY=0.5;exitDx=0;exitDy=0;entryX=0;entryY=0.5;entryDx=0;entryDy=0;fontSize=24;" edge="1" parent="1" source="ilKDNeLHNMvyYoR8y2It-85" target="ilKDNeLHNMvyYoR8y2It-275">
          <mxGeometry relative="1" as="geometry" />
        </mxCell>
        <mxCell id="ilKDNeLHNMvyYoR8y2It-85" value="写入" style="ellipse;whiteSpace=wrap;html=1;aspect=fixed;fontSize=18;" vertex="1" parent="1">
          <mxGeometry x="18" y="697.5" width="50" height="50" as="geometry" />
        </mxCell>
        <mxCell id="ilKDNeLHNMvyYoR8y2It-86" style="edgeStyle=orthogonalEdgeStyle;rounded=0;orthogonalLoop=1;jettySize=auto;html=1;exitX=1;exitY=0.5;exitDx=0;exitDy=0;fontSize=18;" edge="1" parent="1" source="ilKDNeLHNMvyYoR8y2It-84" target="ilKDNeLHNMvyYoR8y2It-85">
          <mxGeometry relative="1" as="geometry" />
        </mxCell>
        <mxCell id="ilKDNeLHNMvyYoR8y2It-87" value="" style="rounded=1;whiteSpace=wrap;html=1;" vertex="1" parent="1">
          <mxGeometry x="-302" y="809" width="390" height="150" as="geometry" />
        </mxCell>
        <mxCell id="ilKDNeLHNMvyYoR8y2It-88" value="Job PSM" style="text;html=1;strokeColor=none;fillColor=none;align=center;verticalAlign=middle;whiteSpace=wrap;rounded=0;" vertex="1" parent="1">
          <mxGeometry x="-212" y="819" width="170" height="20" as="geometry" />
        </mxCell>
        <mxCell id="ilKDNeLHNMvyYoR8y2It-89" value="" style="group" vertex="1" connectable="0" parent="1">
          <mxGeometry x="-272" y="851" width="251" height="65" as="geometry" />
        </mxCell>
        <mxCell id="ilKDNeLHNMvyYoR8y2It-90" value="" style="rounded=0;whiteSpace=wrap;html=1;" vertex="1" parent="ilKDNeLHNMvyYoR8y2It-89">
          <mxGeometry width="251" height="65" as="geometry" />
        </mxCell>
        <mxCell id="ilKDNeLHNMvyYoR8y2It-91" value="业务模块处理流程" style="text;html=1;" vertex="1" parent="ilKDNeLHNMvyYoR8y2It-89">
          <mxGeometry x="21" y="17.5" width="140" height="30" as="geometry" />
        </mxCell>
        <mxCell id="ilKDNeLHNMvyYoR8y2It-92" value="生成日志" style="rounded=1;whiteSpace=wrap;html=1;" vertex="1" parent="ilKDNeLHNMvyYoR8y2It-89">
          <mxGeometry x="161" y="15" width="70" height="32.5" as="geometry" />
        </mxCell>
        <mxCell id="ilKDNeLHNMvyYoR8y2It-93" value="" style="group" vertex="1" connectable="0" parent="1">
          <mxGeometry x="-262" y="861" width="251" height="65" as="geometry" />
        </mxCell>
        <mxCell id="ilKDNeLHNMvyYoR8y2It-94" value="" style="rounded=0;whiteSpace=wrap;html=1;" vertex="1" parent="ilKDNeLHNMvyYoR8y2It-93">
          <mxGeometry width="251" height="65" as="geometry" />
        </mxCell>
        <mxCell id="ilKDNeLHNMvyYoR8y2It-95" value="业务模块处理流程" style="text;html=1;" vertex="1" parent="ilKDNeLHNMvyYoR8y2It-93">
          <mxGeometry x="21" y="17.5" width="140" height="30" as="geometry" />
        </mxCell>
        <mxCell id="ilKDNeLHNMvyYoR8y2It-96" value="生成日志" style="rounded=1;whiteSpace=wrap;html=1;" vertex="1" parent="ilKDNeLHNMvyYoR8y2It-93">
          <mxGeometry x="161" y="15" width="70" height="32.5" as="geometry" />
        </mxCell>
        <mxCell id="ilKDNeLHNMvyYoR8y2It-97" value="" style="group" vertex="1" connectable="0" parent="1">
          <mxGeometry x="-252" y="871" width="251" height="65" as="geometry" />
        </mxCell>
        <mxCell id="ilKDNeLHNMvyYoR8y2It-98" value="" style="rounded=0;whiteSpace=wrap;html=1;" vertex="1" parent="ilKDNeLHNMvyYoR8y2It-97">
          <mxGeometry width="251" height="65" as="geometry" />
        </mxCell>
        <mxCell id="ilKDNeLHNMvyYoR8y2It-99" value="业务模块处理流程" style="text;html=1;" vertex="1" parent="ilKDNeLHNMvyYoR8y2It-97">
          <mxGeometry x="21" y="17.5" width="140" height="30" as="geometry" />
        </mxCell>
        <mxCell id="ilKDNeLHNMvyYoR8y2It-100" value="生成日志" style="rounded=1;whiteSpace=wrap;html=1;" vertex="1" parent="ilKDNeLHNMvyYoR8y2It-97">
          <mxGeometry x="161" y="15" width="70" height="32.5" as="geometry" />
        </mxCell>
        <mxCell id="ilKDNeLHNMvyYoR8y2It-282" style="edgeStyle=none;rounded=0;orthogonalLoop=1;jettySize=auto;html=1;exitX=1;exitY=0.5;exitDx=0;exitDy=0;fontSize=24;entryX=0;entryY=0.5;entryDx=0;entryDy=0;" edge="1" parent="1" source="ilKDNeLHNMvyYoR8y2It-101" target="ilKDNeLHNMvyYoR8y2It-275">
          <mxGeometry relative="1" as="geometry">
            <mxPoint x="314.6666666666665" y="435" as="targetPoint" />
          </mxGeometry>
        </mxCell>
        <mxCell id="ilKDNeLHNMvyYoR8y2It-101" value="写入" style="ellipse;whiteSpace=wrap;html=1;aspect=fixed;fontSize=18;" vertex="1" parent="1">
          <mxGeometry x="18" y="877.5" width="50" height="50" as="geometry" />
        </mxCell>
        <mxCell id="ilKDNeLHNMvyYoR8y2It-102" style="edgeStyle=orthogonalEdgeStyle;rounded=0;orthogonalLoop=1;jettySize=auto;html=1;exitX=1;exitY=0.5;exitDx=0;exitDy=0;fontSize=18;" edge="1" parent="1" source="ilKDNeLHNMvyYoR8y2It-100" target="ilKDNeLHNMvyYoR8y2It-101">
          <mxGeometry relative="1" as="geometry" />
        </mxCell>
        <mxCell id="ilKDNeLHNMvyYoR8y2It-136" style="edgeStyle=none;rounded=0;orthogonalLoop=1;jettySize=auto;html=1;exitX=1;exitY=0.5;exitDx=0;exitDy=0;fontSize=18;" edge="1" parent="1" source="ilKDNeLHNMvyYoR8y2It-103" target="ilKDNeLHNMvyYoR8y2It-108">
          <mxGeometry relative="1" as="geometry" />
        </mxCell>
        <mxCell id="ilKDNeLHNMvyYoR8y2It-103" value="PC端" style="rounded=0;whiteSpace=wrap;html=1;fontSize=18;" vertex="1" parent="1">
          <mxGeometry x="1230" y="110" width="120" height="60" as="geometry" />
        </mxCell>
        <mxCell id="ilKDNeLHNMvyYoR8y2It-137" style="edgeStyle=none;rounded=0;orthogonalLoop=1;jettySize=auto;html=1;exitX=1;exitY=0.5;exitDx=0;exitDy=0;entryX=0;entryY=0.5;entryDx=0;entryDy=0;entryPerimeter=0;fontSize=18;" edge="1" parent="1" source="ilKDNeLHNMvyYoR8y2It-104" target="ilKDNeLHNMvyYoR8y2It-109">
          <mxGeometry relative="1" as="geometry" />
        </mxCell>
        <mxCell id="ilKDNeLHNMvyYoR8y2It-104" value="APP端" style="rounded=0;whiteSpace=wrap;html=1;fontSize=18;" vertex="1" parent="1">
          <mxGeometry x="1230" y="315" width="120" height="60" as="geometry" />
        </mxCell>
        <mxCell id="ilKDNeLHNMvyYoR8y2It-138" style="edgeStyle=none;rounded=0;orthogonalLoop=1;jettySize=auto;html=1;exitX=1;exitY=0.5;exitDx=0;exitDy=0;entryX=0;entryY=0.5;entryDx=0;entryDy=0;entryPerimeter=0;fontSize=18;" edge="1" parent="1" source="ilKDNeLHNMvyYoR8y2It-105" target="ilKDNeLHNMvyYoR8y2It-110">
          <mxGeometry relative="1" as="geometry" />
        </mxCell>
        <mxCell id="ilKDNeLHNMvyYoR8y2It-105" value="第三方" style="rounded=0;whiteSpace=wrap;html=1;fontSize=18;" vertex="1" parent="1">
          <mxGeometry x="1230" y="515" width="120" height="60" as="geometry" />
        </mxCell>
        <mxCell id="ilKDNeLHNMvyYoR8y2It-118" style="rounded=0;orthogonalLoop=1;jettySize=auto;html=1;exitX=1;exitY=0.5;exitDx=0;exitDy=0;exitPerimeter=0;entryX=0;entryY=0.5;entryDx=0;entryDy=0;fontSize=18;" edge="1" parent="1" source="ilKDNeLHNMvyYoR8y2It-108" target="ilKDNeLHNMvyYoR8y2It-112">
          <mxGeometry relative="1" as="geometry" />
        </mxCell>
        <mxCell id="ilKDNeLHNMvyYoR8y2It-119" style="edgeStyle=none;rounded=0;orthogonalLoop=1;jettySize=auto;html=1;exitX=1;exitY=0.5;exitDx=0;exitDy=0;exitPerimeter=0;entryX=0;entryY=0.5;entryDx=0;entryDy=0;fontSize=18;" edge="1" parent="1" source="ilKDNeLHNMvyYoR8y2It-108" target="ilKDNeLHNMvyYoR8y2It-113">
          <mxGeometry relative="1" as="geometry" />
        </mxCell>
        <mxCell id="ilKDNeLHNMvyYoR8y2It-120" style="edgeStyle=none;rounded=0;orthogonalLoop=1;jettySize=auto;html=1;exitX=1;exitY=0.5;exitDx=0;exitDy=0;exitPerimeter=0;entryX=0;entryY=0.5;entryDx=0;entryDy=0;fontSize=18;" edge="1" parent="1" source="ilKDNeLHNMvyYoR8y2It-108" target="ilKDNeLHNMvyYoR8y2It-114">
          <mxGeometry relative="1" as="geometry" />
        </mxCell>
        <mxCell id="ilKDNeLHNMvyYoR8y2It-121" style="edgeStyle=none;rounded=0;orthogonalLoop=1;jettySize=auto;html=1;exitX=1;exitY=0.5;exitDx=0;exitDy=0;exitPerimeter=0;entryX=0;entryY=0.5;entryDx=0;entryDy=0;fontSize=18;" edge="1" parent="1" source="ilKDNeLHNMvyYoR8y2It-108" target="ilKDNeLHNMvyYoR8y2It-115">
          <mxGeometry relative="1" as="geometry" />
        </mxCell>
        <mxCell id="ilKDNeLHNMvyYoR8y2It-122" style="edgeStyle=none;rounded=0;orthogonalLoop=1;jettySize=auto;html=1;exitX=1;exitY=0.5;exitDx=0;exitDy=0;exitPerimeter=0;entryX=0;entryY=0.5;entryDx=0;entryDy=0;fontSize=18;" edge="1" parent="1" source="ilKDNeLHNMvyYoR8y2It-108" target="ilKDNeLHNMvyYoR8y2It-116">
          <mxGeometry relative="1" as="geometry" />
        </mxCell>
        <mxCell id="ilKDNeLHNMvyYoR8y2It-123" style="edgeStyle=none;rounded=0;orthogonalLoop=1;jettySize=auto;html=1;exitX=1;exitY=0.5;exitDx=0;exitDy=0;exitPerimeter=0;entryX=0;entryY=0.5;entryDx=0;entryDy=0;fontSize=18;" edge="1" parent="1" source="ilKDNeLHNMvyYoR8y2It-108" target="ilKDNeLHNMvyYoR8y2It-117">
          <mxGeometry relative="1" as="geometry" />
        </mxCell>
        <mxCell id="ilKDNeLHNMvyYoR8y2It-108" value="Web" style="shape=or;whiteSpace=wrap;html=1;fontSize=18;" vertex="1" parent="1">
          <mxGeometry x="1440" y="100" width="80" height="80" as="geometry" />
        </mxCell>
        <mxCell id="ilKDNeLHNMvyYoR8y2It-124" style="edgeStyle=none;rounded=0;orthogonalLoop=1;jettySize=auto;html=1;exitX=1;exitY=0.5;exitDx=0;exitDy=0;exitPerimeter=0;entryX=0;entryY=0.5;entryDx=0;entryDy=0;fontSize=18;" edge="1" parent="1" source="ilKDNeLHNMvyYoR8y2It-109" target="ilKDNeLHNMvyYoR8y2It-112">
          <mxGeometry relative="1" as="geometry" />
        </mxCell>
        <mxCell id="ilKDNeLHNMvyYoR8y2It-125" style="edgeStyle=none;rounded=0;orthogonalLoop=1;jettySize=auto;html=1;exitX=1;exitY=0.5;exitDx=0;exitDy=0;exitPerimeter=0;entryX=0;entryY=0.5;entryDx=0;entryDy=0;fontSize=18;" edge="1" parent="1" source="ilKDNeLHNMvyYoR8y2It-109" target="ilKDNeLHNMvyYoR8y2It-113">
          <mxGeometry relative="1" as="geometry" />
        </mxCell>
        <mxCell id="ilKDNeLHNMvyYoR8y2It-126" style="edgeStyle=none;rounded=0;orthogonalLoop=1;jettySize=auto;html=1;exitX=1;exitY=0.5;exitDx=0;exitDy=0;exitPerimeter=0;entryX=0;entryY=0.5;entryDx=0;entryDy=0;fontSize=18;" edge="1" parent="1" source="ilKDNeLHNMvyYoR8y2It-109" target="ilKDNeLHNMvyYoR8y2It-114">
          <mxGeometry relative="1" as="geometry" />
        </mxCell>
        <mxCell id="ilKDNeLHNMvyYoR8y2It-127" style="edgeStyle=none;rounded=0;orthogonalLoop=1;jettySize=auto;html=1;exitX=1;exitY=0.5;exitDx=0;exitDy=0;exitPerimeter=0;entryX=0;entryY=0.5;entryDx=0;entryDy=0;fontSize=18;" edge="1" parent="1" source="ilKDNeLHNMvyYoR8y2It-109" target="ilKDNeLHNMvyYoR8y2It-115">
          <mxGeometry relative="1" as="geometry" />
        </mxCell>
        <mxCell id="ilKDNeLHNMvyYoR8y2It-128" style="edgeStyle=none;rounded=0;orthogonalLoop=1;jettySize=auto;html=1;exitX=1;exitY=0.5;exitDx=0;exitDy=0;exitPerimeter=0;entryX=0;entryY=0.5;entryDx=0;entryDy=0;fontSize=18;" edge="1" parent="1" source="ilKDNeLHNMvyYoR8y2It-109" target="ilKDNeLHNMvyYoR8y2It-116">
          <mxGeometry relative="1" as="geometry" />
        </mxCell>
        <mxCell id="ilKDNeLHNMvyYoR8y2It-129" style="edgeStyle=none;rounded=0;orthogonalLoop=1;jettySize=auto;html=1;exitX=1;exitY=0.5;exitDx=0;exitDy=0;exitPerimeter=0;entryX=0;entryY=0.5;entryDx=0;entryDy=0;fontSize=18;" edge="1" parent="1" source="ilKDNeLHNMvyYoR8y2It-109" target="ilKDNeLHNMvyYoR8y2It-117">
          <mxGeometry relative="1" as="geometry" />
        </mxCell>
        <mxCell id="ilKDNeLHNMvyYoR8y2It-109" value="APP" style="shape=or;whiteSpace=wrap;html=1;fontSize=18;" vertex="1" parent="1">
          <mxGeometry x="1440" y="305" width="80" height="80" as="geometry" />
        </mxCell>
        <mxCell id="ilKDNeLHNMvyYoR8y2It-130" style="edgeStyle=none;rounded=0;orthogonalLoop=1;jettySize=auto;html=1;exitX=1;exitY=0.5;exitDx=0;exitDy=0;exitPerimeter=0;entryX=0;entryY=0.64;entryDx=0;entryDy=0;entryPerimeter=0;fontSize=18;" edge="1" parent="1" source="ilKDNeLHNMvyYoR8y2It-110" target="ilKDNeLHNMvyYoR8y2It-112">
          <mxGeometry relative="1" as="geometry" />
        </mxCell>
        <mxCell id="ilKDNeLHNMvyYoR8y2It-131" style="edgeStyle=none;rounded=0;orthogonalLoop=1;jettySize=auto;html=1;exitX=1;exitY=0.5;exitDx=0;exitDy=0;exitPerimeter=0;entryX=-0.011;entryY=0.64;entryDx=0;entryDy=0;entryPerimeter=0;fontSize=18;" edge="1" parent="1" source="ilKDNeLHNMvyYoR8y2It-110" target="ilKDNeLHNMvyYoR8y2It-113">
          <mxGeometry relative="1" as="geometry" />
        </mxCell>
        <mxCell id="ilKDNeLHNMvyYoR8y2It-132" style="edgeStyle=none;rounded=0;orthogonalLoop=1;jettySize=auto;html=1;exitX=1;exitY=0.5;exitDx=0;exitDy=0;exitPerimeter=0;entryX=0;entryY=0.5;entryDx=0;entryDy=0;fontSize=18;" edge="1" parent="1" source="ilKDNeLHNMvyYoR8y2It-110" target="ilKDNeLHNMvyYoR8y2It-114">
          <mxGeometry relative="1" as="geometry" />
        </mxCell>
        <mxCell id="ilKDNeLHNMvyYoR8y2It-133" style="edgeStyle=none;rounded=0;orthogonalLoop=1;jettySize=auto;html=1;exitX=1;exitY=0.5;exitDx=0;exitDy=0;exitPerimeter=0;entryX=0;entryY=0.5;entryDx=0;entryDy=0;fontSize=18;" edge="1" parent="1" source="ilKDNeLHNMvyYoR8y2It-110" target="ilKDNeLHNMvyYoR8y2It-115">
          <mxGeometry relative="1" as="geometry" />
        </mxCell>
        <mxCell id="ilKDNeLHNMvyYoR8y2It-134" style="edgeStyle=none;rounded=0;orthogonalLoop=1;jettySize=auto;html=1;exitX=1;exitY=0.5;exitDx=0;exitDy=0;exitPerimeter=0;entryX=0;entryY=0.5;entryDx=0;entryDy=0;fontSize=18;" edge="1" parent="1" source="ilKDNeLHNMvyYoR8y2It-110" target="ilKDNeLHNMvyYoR8y2It-116">
          <mxGeometry relative="1" as="geometry" />
        </mxCell>
        <mxCell id="ilKDNeLHNMvyYoR8y2It-135" style="edgeStyle=none;rounded=0;orthogonalLoop=1;jettySize=auto;html=1;exitX=1;exitY=0.5;exitDx=0;exitDy=0;exitPerimeter=0;entryX=0;entryY=0.5;entryDx=0;entryDy=0;fontSize=18;" edge="1" parent="1" source="ilKDNeLHNMvyYoR8y2It-110" target="ilKDNeLHNMvyYoR8y2It-117">
          <mxGeometry relative="1" as="geometry" />
        </mxCell>
        <mxCell id="ilKDNeLHNMvyYoR8y2It-110" value="Open&lt;br&gt;API" style="shape=or;whiteSpace=wrap;html=1;fontSize=18;" vertex="1" parent="1">
          <mxGeometry x="1440" y="505" width="80" height="80" as="geometry" />
        </mxCell>
        <mxCell id="ilKDNeLHNMvyYoR8y2It-111" value="" style="endArrow=none;dashed=1;html=1;fontSize=18;" edge="1" parent="1">
          <mxGeometry width="50" height="50" relative="1" as="geometry">
            <mxPoint x="1680" y="600" as="sourcePoint" />
            <mxPoint x="1680" y="70" as="targetPoint" />
          </mxGeometry>
        </mxCell>
        <mxCell id="ilKDNeLHNMvyYoR8y2It-141" style="edgeStyle=none;rounded=0;orthogonalLoop=1;jettySize=auto;html=1;exitX=1;exitY=0.5;exitDx=0;exitDy=0;entryX=0;entryY=0.5;entryDx=0;entryDy=0;fontSize=18;" edge="1" parent="1" source="ilKDNeLHNMvyYoR8y2It-112" target="ilKDNeLHNMvyYoR8y2It-140">
          <mxGeometry relative="1" as="geometry" />
        </mxCell>
        <mxCell id="ilKDNeLHNMvyYoR8y2It-112" value="账户服务" style="rounded=0;whiteSpace=wrap;html=1;fontSize=18;" vertex="1" parent="1">
          <mxGeometry x="1800" y="100" width="180" height="50" as="geometry" />
        </mxCell>
        <mxCell id="ilKDNeLHNMvyYoR8y2It-142" style="edgeStyle=none;rounded=0;orthogonalLoop=1;jettySize=auto;html=1;exitX=1;exitY=0.5;exitDx=0;exitDy=0;fontSize=18;entryX=0;entryY=0.5;entryDx=0;entryDy=0;" edge="1" parent="1" source="ilKDNeLHNMvyYoR8y2It-113" target="ilKDNeLHNMvyYoR8y2It-140">
          <mxGeometry relative="1" as="geometry">
            <mxPoint x="2180" y="300" as="targetPoint" />
          </mxGeometry>
        </mxCell>
        <mxCell id="ilKDNeLHNMvyYoR8y2It-113" value="创编服务" style="rounded=0;whiteSpace=wrap;html=1;fontSize=18;" vertex="1" parent="1">
          <mxGeometry x="1800" y="185" width="180" height="50" as="geometry" />
        </mxCell>
        <mxCell id="ilKDNeLHNMvyYoR8y2It-143" style="edgeStyle=none;rounded=0;orthogonalLoop=1;jettySize=auto;html=1;exitX=1;exitY=0.5;exitDx=0;exitDy=0;entryX=0;entryY=0.5;entryDx=0;entryDy=0;fontSize=18;" edge="1" parent="1" source="ilKDNeLHNMvyYoR8y2It-114" target="ilKDNeLHNMvyYoR8y2It-140">
          <mxGeometry relative="1" as="geometry" />
        </mxCell>
        <mxCell id="ilKDNeLHNMvyYoR8y2It-114" value="投放能力" style="rounded=0;whiteSpace=wrap;html=1;fontSize=18;" vertex="1" parent="1">
          <mxGeometry x="1800" y="270" width="180" height="50" as="geometry" />
        </mxCell>
        <mxCell id="ilKDNeLHNMvyYoR8y2It-144" style="edgeStyle=none;rounded=0;orthogonalLoop=1;jettySize=auto;html=1;exitX=1;exitY=0.5;exitDx=0;exitDy=0;entryX=0;entryY=0.5;entryDx=0;entryDy=0;fontSize=18;" edge="1" parent="1" source="ilKDNeLHNMvyYoR8y2It-115" target="ilKDNeLHNMvyYoR8y2It-140">
          <mxGeometry relative="1" as="geometry" />
        </mxCell>
        <mxCell id="ilKDNeLHNMvyYoR8y2It-115" value="工具服务" style="rounded=0;whiteSpace=wrap;html=1;fontSize=18;" vertex="1" parent="1">
          <mxGeometry x="1800" y="350" width="180" height="50" as="geometry" />
        </mxCell>
        <mxCell id="ilKDNeLHNMvyYoR8y2It-145" style="edgeStyle=none;rounded=0;orthogonalLoop=1;jettySize=auto;html=1;exitX=1;exitY=0.5;exitDx=0;exitDy=0;fontSize=18;entryX=0;entryY=0.5;entryDx=0;entryDy=0;" edge="1" parent="1" source="ilKDNeLHNMvyYoR8y2It-116" target="ilKDNeLHNMvyYoR8y2It-140">
          <mxGeometry relative="1" as="geometry">
            <mxPoint x="2180" y="290" as="targetPoint" />
          </mxGeometry>
        </mxCell>
        <mxCell id="ilKDNeLHNMvyYoR8y2It-116" value="收银服务" style="rounded=0;whiteSpace=wrap;html=1;fontSize=18;" vertex="1" parent="1">
          <mxGeometry x="1800" y="430" width="180" height="50" as="geometry" />
        </mxCell>
        <mxCell id="ilKDNeLHNMvyYoR8y2It-146" style="edgeStyle=none;rounded=0;orthogonalLoop=1;jettySize=auto;html=1;exitX=1;exitY=0.5;exitDx=0;exitDy=0;fontSize=18;entryX=0;entryY=0.5;entryDx=0;entryDy=0;" edge="1" parent="1" source="ilKDNeLHNMvyYoR8y2It-117" target="ilKDNeLHNMvyYoR8y2It-140">
          <mxGeometry relative="1" as="geometry">
            <mxPoint x="2180" y="290" as="targetPoint" />
          </mxGeometry>
        </mxCell>
        <mxCell id="ilKDNeLHNMvyYoR8y2It-117" value="统计服务" style="rounded=0;whiteSpace=wrap;html=1;fontSize=18;" vertex="1" parent="1">
          <mxGeometry x="1800" y="510" width="180" height="50" as="geometry" />
        </mxCell>
        <mxCell id="ilKDNeLHNMvyYoR8y2It-139" value="" style="endArrow=none;dashed=1;html=1;fontSize=18;" edge="1" parent="1">
          <mxGeometry width="50" height="50" relative="1" as="geometry">
            <mxPoint x="2050" y="600" as="sourcePoint" />
            <mxPoint x="2050" y="40" as="targetPoint" />
          </mxGeometry>
        </mxCell>
        <mxCell id="ilKDNeLHNMvyYoR8y2It-153" style="edgeStyle=none;rounded=0;orthogonalLoop=1;jettySize=auto;html=1;exitX=0.5;exitY=1;exitDx=0;exitDy=0;entryX=0.5;entryY=0;entryDx=0;entryDy=0;fontSize=18;" edge="1" parent="1" source="ilKDNeLHNMvyYoR8y2It-140" target="ilKDNeLHNMvyYoR8y2It-152">
          <mxGeometry relative="1" as="geometry" />
        </mxCell>
        <mxCell id="ilKDNeLHNMvyYoR8y2It-140" value="日志入库" style="rounded=0;whiteSpace=wrap;html=1;fontSize=18;" vertex="1" parent="1">
          <mxGeometry x="2140" y="100" width="180" height="50" as="geometry" />
        </mxCell>
        <mxCell id="ilKDNeLHNMvyYoR8y2It-155" style="edgeStyle=none;rounded=0;orthogonalLoop=1;jettySize=auto;html=1;exitX=0.5;exitY=1;exitDx=0;exitDy=0;fontSize=18;" edge="1" parent="1" source="ilKDNeLHNMvyYoR8y2It-147" target="ilKDNeLHNMvyYoR8y2It-150">
          <mxGeometry relative="1" as="geometry" />
        </mxCell>
        <mxCell id="ilKDNeLHNMvyYoR8y2It-147" value="日志提取" style="rounded=0;whiteSpace=wrap;html=1;fontSize=18;" vertex="1" parent="1">
          <mxGeometry x="2140" y="377" width="180" height="50" as="geometry" />
        </mxCell>
        <mxCell id="ilKDNeLHNMvyYoR8y2It-156" style="edgeStyle=orthogonalEdgeStyle;rounded=0;orthogonalLoop=1;jettySize=auto;html=1;exitX=0.5;exitY=1;exitDx=0;exitDy=0;fontSize=18;entryX=0.5;entryY=1;entryDx=0;entryDy=0;" edge="1" parent="1" source="ilKDNeLHNMvyYoR8y2It-150" target="ilKDNeLHNMvyYoR8y2It-157">
          <mxGeometry relative="1" as="geometry">
            <mxPoint x="1890" y="670" as="targetPoint" />
            <Array as="points">
              <mxPoint x="2230" y="640" />
              <mxPoint x="1490" y="640" />
            </Array>
          </mxGeometry>
        </mxCell>
        <mxCell id="ilKDNeLHNMvyYoR8y2It-150" value="日志格式化" style="rounded=0;whiteSpace=wrap;html=1;fontSize=18;" vertex="1" parent="1">
          <mxGeometry x="2140" y="480" width="180" height="50" as="geometry" />
        </mxCell>
        <mxCell id="ilKDNeLHNMvyYoR8y2It-154" style="edgeStyle=none;rounded=0;orthogonalLoop=1;jettySize=auto;html=1;exitX=0.5;exitY=1;exitDx=0;exitDy=0;fontSize=18;" edge="1" parent="1" source="ilKDNeLHNMvyYoR8y2It-152" target="ilKDNeLHNMvyYoR8y2It-147">
          <mxGeometry relative="1" as="geometry" />
        </mxCell>
        <mxCell id="ilKDNeLHNMvyYoR8y2It-165" style="edgeStyle=orthogonalEdgeStyle;rounded=0;orthogonalLoop=1;jettySize=auto;html=1;exitX=1;exitY=0.5;exitDx=0;exitDy=0;entryX=0;entryY=0.5;entryDx=0;entryDy=0;fontSize=22;" edge="1" parent="1" source="ilKDNeLHNMvyYoR8y2It-152" target="ilKDNeLHNMvyYoR8y2It-164">
          <mxGeometry relative="1" as="geometry" />
        </mxCell>
        <mxCell id="ilKDNeLHNMvyYoR8y2It-166" style="edgeStyle=orthogonalEdgeStyle;rounded=0;orthogonalLoop=1;jettySize=auto;html=1;exitX=1;exitY=0.5;exitDx=0;exitDy=0;entryX=0;entryY=0.5;entryDx=0;entryDy=0;fontSize=22;" edge="1" parent="1" source="ilKDNeLHNMvyYoR8y2It-152" target="ilKDNeLHNMvyYoR8y2It-163">
          <mxGeometry relative="1" as="geometry" />
        </mxCell>
        <mxCell id="ilKDNeLHNMvyYoR8y2It-152" value="数据存储" style="shape=cylinder;whiteSpace=wrap;html=1;boundedLbl=1;backgroundOutline=1;fontSize=18;" vertex="1" parent="1">
          <mxGeometry x="2150" y="250" width="160" height="65" as="geometry" />
        </mxCell>
        <mxCell id="ilKDNeLHNMvyYoR8y2It-158" value="操作日志服务" style="text;html=1;strokeColor=none;fillColor=none;align=center;verticalAlign=middle;whiteSpace=wrap;rounded=0;dashed=1;fontSize=22;" vertex="1" parent="1">
          <mxGeometry x="2130" y="28" width="180" height="20" as="geometry" />
        </mxCell>
        <mxCell id="ilKDNeLHNMvyYoR8y2It-161" value="操作日志下游服务" style="text;html=1;strokeColor=none;fillColor=none;align=center;verticalAlign=middle;whiteSpace=wrap;rounded=0;dashed=1;fontSize=22;" vertex="1" parent="1">
          <mxGeometry x="2511" y="28" width="220" height="20" as="geometry" />
        </mxCell>
        <mxCell id="ilKDNeLHNMvyYoR8y2It-162" value="操作日志上游服务" style="text;html=1;strokeColor=none;fillColor=none;align=center;verticalAlign=middle;whiteSpace=wrap;rounded=0;dashed=1;fontSize=22;" vertex="1" parent="1">
          <mxGeometry x="1580" y="30" width="210" height="20" as="geometry" />
        </mxCell>
        <mxCell id="ilKDNeLHNMvyYoR8y2It-163" value="反作弊等应用服务" style="rounded=0;whiteSpace=wrap;html=1;fontSize=18;" vertex="1" parent="1">
          <mxGeometry x="2491" y="325" width="240" height="50" as="geometry" />
        </mxCell>
        <mxCell id="ilKDNeLHNMvyYoR8y2It-164" value="数据组" style="rounded=0;whiteSpace=wrap;html=1;fontSize=18;" vertex="1" parent="1">
          <mxGeometry x="2491" y="202" width="240" height="50" as="geometry" />
        </mxCell>
        <mxCell id="ilKDNeLHNMvyYoR8y2It-167" value="反作弊等应用服务" style="rounded=0;whiteSpace=wrap;html=1;fontSize=18;" vertex="1" parent="1">
          <mxGeometry x="2501" y="335" width="240" height="50" as="geometry" />
        </mxCell>
        <mxCell id="ilKDNeLHNMvyYoR8y2It-168" value="数据组" style="rounded=0;whiteSpace=wrap;html=1;fontSize=18;" vertex="1" parent="1">
          <mxGeometry x="2501" y="212" width="240" height="50" as="geometry" />
        </mxCell>
        <mxCell id="ilKDNeLHNMvyYoR8y2It-169" value="" style="endArrow=none;dashed=1;html=1;fontSize=18;" edge="1" parent="1">
          <mxGeometry width="50" height="50" relative="1" as="geometry">
            <mxPoint x="2440" y="600" as="sourcePoint" />
            <mxPoint x="2440" y="40" as="targetPoint" />
          </mxGeometry>
        </mxCell>
        <mxCell id="ilKDNeLHNMvyYoR8y2It-170" value="第三方" style="rounded=0;whiteSpace=wrap;html=1;fontSize=18;" vertex="1" parent="1">
          <mxGeometry x="1240" y="525" width="120" height="60" as="geometry" />
        </mxCell>
        <mxCell id="ilKDNeLHNMvyYoR8y2It-171" value="第三方" style="rounded=0;whiteSpace=wrap;html=1;fontSize=18;" vertex="1" parent="1">
          <mxGeometry x="1250" y="535" width="120" height="60" as="geometry" />
        </mxCell>
        <mxCell id="ilKDNeLHNMvyYoR8y2It-209" style="edgeStyle=none;rounded=0;orthogonalLoop=1;jettySize=auto;html=1;exitX=0.5;exitY=1;exitDx=0;exitDy=0;fontSize=24;" edge="1" parent="1" source="ilKDNeLHNMvyYoR8y2It-173" target="ilKDNeLHNMvyYoR8y2It-189">
          <mxGeometry relative="1" as="geometry" />
        </mxCell>
        <mxCell id="ilKDNeLHNMvyYoR8y2It-173" value="RPC" style="rounded=0;whiteSpace=wrap;html=1;fontSize=22;" vertex="1" parent="1">
          <mxGeometry x="1060" y="1218" width="265" height="60" as="geometry" />
        </mxCell>
        <mxCell id="ilKDNeLHNMvyYoR8y2It-210" style="edgeStyle=none;rounded=0;orthogonalLoop=1;jettySize=auto;html=1;exitX=0.5;exitY=1;exitDx=0;exitDy=0;entryX=0.5;entryY=0;entryDx=0;entryDy=0;fontSize=24;" edge="1" parent="1" source="ilKDNeLHNMvyYoR8y2It-174" target="ilKDNeLHNMvyYoR8y2It-189">
          <mxGeometry relative="1" as="geometry" />
        </mxCell>
        <mxCell id="ilKDNeLHNMvyYoR8y2It-174" value="MQ" style="rounded=0;whiteSpace=wrap;html=1;fontSize=22;" vertex="1" parent="1">
          <mxGeometry x="1386" y="1218" width="235" height="60" as="geometry" />
        </mxCell>
        <mxCell id="ilKDNeLHNMvyYoR8y2It-176" value="接入层" style="text;html=1;strokeColor=none;fillColor=none;align=center;verticalAlign=middle;whiteSpace=wrap;rounded=0;fontSize=32;" vertex="1" parent="1">
          <mxGeometry x="866" y="1235" width="116" height="20" as="geometry" />
        </mxCell>
        <mxCell id="ilKDNeLHNMvyYoR8y2It-179" value="预写层" style="text;html=1;strokeColor=none;fillColor=none;align=center;verticalAlign=middle;whiteSpace=wrap;rounded=0;fontSize=32;" vertex="1" parent="1">
          <mxGeometry x="866" y="1408" width="116" height="20" as="geometry" />
        </mxCell>
        <mxCell id="ilKDNeLHNMvyYoR8y2It-181" value="存储层" style="text;html=1;strokeColor=none;fillColor=none;align=center;verticalAlign=middle;whiteSpace=wrap;rounded=0;fontSize=32;" vertex="1" parent="1">
          <mxGeometry x="870" y="1603" width="116" height="20" as="geometry" />
        </mxCell>
        <mxCell id="ilKDNeLHNMvyYoR8y2It-183" value="MySQL" style="shape=cylinder;whiteSpace=wrap;html=1;boundedLbl=1;backgroundOutline=1;fontSize=18;" vertex="1" parent="1">
          <mxGeometry x="1061" y="1575" width="114" height="65" as="geometry" />
        </mxCell>
        <mxCell id="ilKDNeLHNMvyYoR8y2It-184" value="ES" style="shape=cylinder;whiteSpace=wrap;html=1;boundedLbl=1;backgroundOutline=1;fontSize=18;fillColor=#f5f5f5;strokeColor=#666666;fontColor=#333333;" vertex="1" parent="1">
          <mxGeometry x="1193" y="1577" width="114" height="65" as="geometry" />
        </mxCell>
        <mxCell id="ilKDNeLHNMvyYoR8y2It-185" value="ClickHouse" style="shape=cylinder;whiteSpace=wrap;html=1;boundedLbl=1;backgroundOutline=1;fontSize=18;" vertex="1" parent="1">
          <mxGeometry x="1347" y="1575" width="114" height="65" as="geometry" />
        </mxCell>
        <mxCell id="ilKDNeLHNMvyYoR8y2It-229" style="edgeStyle=none;rounded=0;orthogonalLoop=1;jettySize=auto;html=1;exitX=0.5;exitY=1;exitDx=0;exitDy=0;fontSize=24;" edge="1" parent="1" source="ilKDNeLHNMvyYoR8y2It-186" target="ilKDNeLHNMvyYoR8y2It-219">
          <mxGeometry relative="1" as="geometry" />
        </mxCell>
        <mxCell id="ilKDNeLHNMvyYoR8y2It-186" value="Hive" style="shape=cylinder;whiteSpace=wrap;html=1;boundedLbl=1;backgroundOutline=1;fontSize=18;" vertex="1" parent="1">
          <mxGeometry x="1526.5" y="1577" width="114" height="65" as="geometry" />
        </mxCell>
        <mxCell id="ilKDNeLHNMvyYoR8y2It-187" value="服务层" style="text;html=1;strokeColor=none;fillColor=none;align=center;verticalAlign=middle;whiteSpace=wrap;rounded=0;fontSize=32;" vertex="1" parent="1">
          <mxGeometry x="859" y="1765" width="144" height="20" as="geometry" />
        </mxCell>
        <mxCell id="ilKDNeLHNMvyYoR8y2It-211" style="edgeStyle=none;rounded=0;orthogonalLoop=1;jettySize=auto;html=1;exitX=1;exitY=0.5;exitDx=0;exitDy=0;entryX=0;entryY=0.5;entryDx=0;entryDy=0;fontSize=24;" edge="1" parent="1" source="ilKDNeLHNMvyYoR8y2It-189" target="ilKDNeLHNMvyYoR8y2It-190">
          <mxGeometry relative="1" as="geometry" />
        </mxCell>
        <mxCell id="ilKDNeLHNMvyYoR8y2It-212" style="edgeStyle=none;rounded=0;orthogonalLoop=1;jettySize=auto;html=1;exitX=0.5;exitY=1;exitDx=0;exitDy=0;entryX=0.345;entryY=-0.004;entryDx=0;entryDy=0;fontSize=24;entryPerimeter=0;" edge="1" parent="1" source="ilKDNeLHNMvyYoR8y2It-189" target="ilKDNeLHNMvyYoR8y2It-191">
          <mxGeometry relative="1" as="geometry" />
        </mxCell>
        <mxCell id="ilKDNeLHNMvyYoR8y2It-189" value="字段质检" style="rounded=0;whiteSpace=wrap;html=1;fontSize=22;" vertex="1" parent="1">
          <mxGeometry x="1057" y="1388" width="271" height="60" as="geometry" />
        </mxCell>
        <mxCell id="ilKDNeLHNMvyYoR8y2It-213" style="edgeStyle=none;rounded=0;orthogonalLoop=1;jettySize=auto;html=1;exitX=0.5;exitY=1;exitDx=0;exitDy=0;entryX=0.5;entryY=0;entryDx=0;entryDy=0;fontSize=24;" edge="1" parent="1" source="ilKDNeLHNMvyYoR8y2It-190" target="ilKDNeLHNMvyYoR8y2It-191">
          <mxGeometry relative="1" as="geometry" />
        </mxCell>
        <mxCell id="ilKDNeLHNMvyYoR8y2It-190" value="上下文收集" style="rounded=0;whiteSpace=wrap;html=1;fontSize=22;" vertex="1" parent="1">
          <mxGeometry x="1413" y="1388" width="235" height="60" as="geometry" />
        </mxCell>
        <mxCell id="ilKDNeLHNMvyYoR8y2It-214" style="edgeStyle=none;rounded=0;orthogonalLoop=1;jettySize=auto;html=1;exitX=1;exitY=0.5;exitDx=0;exitDy=0;entryX=0;entryY=0.5;entryDx=0;entryDy=0;fontSize=24;" edge="1" parent="1" source="ilKDNeLHNMvyYoR8y2It-191" target="ilKDNeLHNMvyYoR8y2It-186">
          <mxGeometry relative="1" as="geometry" />
        </mxCell>
        <mxCell id="ilKDNeLHNMvyYoR8y2It-192" value="在线数据" style="text;html=1;strokeColor=none;fillColor=none;align=center;verticalAlign=middle;whiteSpace=wrap;rounded=0;dashed=1;fontSize=24;" vertex="1" parent="1">
          <mxGeometry x="1189" y="1532" width="139" height="20" as="geometry" />
        </mxCell>
        <mxCell id="ilKDNeLHNMvyYoR8y2It-193" value="离线数据" style="text;html=1;strokeColor=none;fillColor=none;align=center;verticalAlign=middle;whiteSpace=wrap;rounded=0;dashed=1;fontSize=24;" vertex="1" parent="1">
          <mxGeometry x="1518.5" y="1532" width="139" height="20" as="geometry" />
        </mxCell>
        <mxCell id="ilKDNeLHNMvyYoR8y2It-194" value="账户中心" style="rounded=0;whiteSpace=wrap;html=1;fontSize=22;" vertex="1" parent="1">
          <mxGeometry x="1887" y="1095" width="164" height="51" as="geometry" />
        </mxCell>
        <mxCell id="ilKDNeLHNMvyYoR8y2It-195" value="写业务方" style="text;html=1;strokeColor=none;fillColor=none;align=center;verticalAlign=middle;whiteSpace=wrap;rounded=0;fontSize=32;" vertex="1" parent="1">
          <mxGeometry x="843.5" y="1088" width="148.5" height="20" as="geometry" />
        </mxCell>
        <mxCell id="ilKDNeLHNMvyYoR8y2It-196" value="PSM" style="rounded=0;whiteSpace=wrap;html=1;fontSize=22;" vertex="1" parent="1">
          <mxGeometry x="1054" y="1067" width="149" height="60" as="geometry" />
        </mxCell>
        <mxCell id="ilKDNeLHNMvyYoR8y2It-197" value="PSM" style="rounded=0;whiteSpace=wrap;html=1;fontSize=22;" vertex="1" parent="1">
          <mxGeometry x="1244" y="1067" width="149" height="60" as="geometry" />
        </mxCell>
        <mxCell id="ilKDNeLHNMvyYoR8y2It-204" style="rounded=0;orthogonalLoop=1;jettySize=auto;html=1;exitX=1;exitY=0.5;exitDx=0;exitDy=0;entryX=0;entryY=0.5;entryDx=0;entryDy=0;fontSize=24;" edge="1" parent="1" source="ilKDNeLHNMvyYoR8y2It-206" target="ilKDNeLHNMvyYoR8y2It-201">
          <mxGeometry relative="1" as="geometry" />
        </mxCell>
        <mxCell id="ilKDNeLHNMvyYoR8y2It-198" value="PSM" style="rounded=0;whiteSpace=wrap;html=1;fontSize=22;" vertex="1" parent="1">
          <mxGeometry x="1488" y="1067" width="149" height="60" as="geometry" />
        </mxCell>
        <mxCell id="ilKDNeLHNMvyYoR8y2It-199" value="MS日志中心" style="rounded=0;whiteSpace=wrap;html=1;fontSize=22;" vertex="1" parent="1">
          <mxGeometry x="1887" y="1160" width="164" height="51" as="geometry" />
        </mxCell>
        <mxCell id="ilKDNeLHNMvyYoR8y2It-200" value="Trace平台" style="rounded=0;whiteSpace=wrap;html=1;fontSize=22;" vertex="1" parent="1">
          <mxGeometry x="1887" y="1220" width="164" height="51" as="geometry" />
        </mxCell>
        <mxCell id="ilKDNeLHNMvyYoR8y2It-205" style="edgeStyle=none;rounded=0;orthogonalLoop=1;jettySize=auto;html=1;exitX=0;exitY=0.5;exitDx=0;exitDy=0;entryX=1;entryY=0.5;entryDx=0;entryDy=0;fontSize=24;" edge="1" parent="1" source="ilKDNeLHNMvyYoR8y2It-201" target="ilKDNeLHNMvyYoR8y2It-190">
          <mxGeometry relative="1" as="geometry" />
        </mxCell>
        <mxCell id="ilKDNeLHNMvyYoR8y2It-202" value="关联系统" style="text;html=1;strokeColor=none;fillColor=none;align=center;verticalAlign=middle;whiteSpace=wrap;rounded=0;dashed=1;fontSize=24;" vertex="1" parent="1">
          <mxGeometry x="1899.5" y="1040" width="139" height="20" as="geometry" />
        </mxCell>
        <mxCell id="ilKDNeLHNMvyYoR8y2It-203" value="..." style="text;html=1;strokeColor=none;fillColor=none;align=center;verticalAlign=middle;whiteSpace=wrap;rounded=0;fontSize=30;" vertex="1" parent="1">
          <mxGeometry x="1410" y="1087" width="61" height="20" as="geometry" />
        </mxCell>
        <mxCell id="ilKDNeLHNMvyYoR8y2It-207" style="edgeStyle=none;rounded=0;orthogonalLoop=1;jettySize=auto;html=1;exitX=0.25;exitY=1;exitDx=0;exitDy=0;entryX=0.5;entryY=0;entryDx=0;entryDy=0;fontSize=24;" edge="1" parent="1" source="ilKDNeLHNMvyYoR8y2It-206" target="ilKDNeLHNMvyYoR8y2It-173">
          <mxGeometry relative="1" as="geometry" />
        </mxCell>
        <mxCell id="ilKDNeLHNMvyYoR8y2It-208" style="edgeStyle=none;rounded=0;orthogonalLoop=1;jettySize=auto;html=1;exitX=0.75;exitY=1;exitDx=0;exitDy=0;fontSize=24;" edge="1" parent="1" source="ilKDNeLHNMvyYoR8y2It-206" target="ilKDNeLHNMvyYoR8y2It-174">
          <mxGeometry relative="1" as="geometry" />
        </mxCell>
        <mxCell id="ilKDNeLHNMvyYoR8y2It-216" value="多维查询" style="rounded=0;whiteSpace=wrap;html=1;fontSize=22;" vertex="1" parent="1">
          <mxGeometry x="1044" y="1745" width="129" height="60" as="geometry" />
        </mxCell>
        <mxCell id="ilKDNeLHNMvyYoR8y2It-218" value="业务方感知" style="rounded=0;whiteSpace=wrap;html=1;fontSize=22;" vertex="1" parent="1">
          <mxGeometry x="1363" y="1743" width="133" height="60" as="geometry" />
        </mxCell>
        <mxCell id="ilKDNeLHNMvyYoR8y2It-219" value="离线下载" style="rounded=0;whiteSpace=wrap;html=1;fontSize=22;" vertex="1" parent="1">
          <mxGeometry x="1522" y="1743" width="123" height="60" as="geometry" />
        </mxCell>
        <mxCell id="ilKDNeLHNMvyYoR8y2It-224" style="edgeStyle=none;rounded=0;orthogonalLoop=1;jettySize=auto;html=1;exitX=0;exitY=0.5;exitDx=0;exitDy=0;entryX=1;entryY=0.5;entryDx=0;entryDy=0;fontSize=24;" edge="1" parent="1" source="ilKDNeLHNMvyYoR8y2It-220" target="ilKDNeLHNMvyYoR8y2It-223">
          <mxGeometry relative="1" as="geometry" />
        </mxCell>
        <mxCell id="ilKDNeLHNMvyYoR8y2It-226" style="edgeStyle=none;rounded=0;orthogonalLoop=1;jettySize=auto;html=1;exitX=0;exitY=0.5;exitDx=0;exitDy=0;entryX=1;entryY=0.75;entryDx=0;entryDy=0;fontSize=24;" edge="1" parent="1" source="ilKDNeLHNMvyYoR8y2It-220" target="ilKDNeLHNMvyYoR8y2It-225">
          <mxGeometry relative="1" as="geometry" />
        </mxCell>
        <mxCell id="ilKDNeLHNMvyYoR8y2It-220" value="注册配置" style="rounded=0;whiteSpace=wrap;html=1;fontSize=22;" vertex="1" parent="1">
          <mxGeometry x="1724" y="1494" width="56" height="231" as="geometry" />
        </mxCell>
        <mxCell id="ilKDNeLHNMvyYoR8y2It-228" value="上下文关联" style="rounded=0;whiteSpace=wrap;html=1;fontSize=22;" vertex="1" parent="1">
          <mxGeometry x="1200" y="1743" width="133" height="60" as="geometry" />
        </mxCell>
        <mxCell id="ilKDNeLHNMvyYoR8y2It-231" value="" style="rounded=0;whiteSpace=wrap;html=1;fontSize=32;fillColor=#d5e8d4;strokeColor=#82b366;" vertex="1" parent="1">
          <mxGeometry x="1867" y="1687" width="59" height="23" as="geometry" />
        </mxCell>
        <mxCell id="ilKDNeLHNMvyYoR8y2It-232" value="相关系统" style="text;html=1;strokeColor=none;fillColor=none;align=center;verticalAlign=middle;whiteSpace=wrap;rounded=0;dashed=1;fontSize=24;" vertex="1" parent="1">
          <mxGeometry x="1939" y="1690" width="129" height="20" as="geometry" />
        </mxCell>
        <mxCell id="ilKDNeLHNMvyYoR8y2It-234" value="" style="rounded=0;whiteSpace=wrap;html=1;fontSize=32;fillColor=#dae8fc;strokeColor=#6c8ebf;" vertex="1" parent="1">
          <mxGeometry x="1867" y="1759" width="59" height="23" as="geometry" />
        </mxCell>
        <mxCell id="ilKDNeLHNMvyYoR8y2It-235" value="日志服务" style="text;html=1;strokeColor=none;fillColor=none;align=center;verticalAlign=middle;whiteSpace=wrap;rounded=0;dashed=1;fontSize=24;" vertex="1" parent="1">
          <mxGeometry x="1939" y="1762" width="129" height="20" as="geometry" />
        </mxCell>
        <mxCell id="ilKDNeLHNMvyYoR8y2It-236" value="" style="rounded=0;whiteSpace=wrap;html=1;fontSize=32;fillColor=#d5e8d4;dashed=1;strokeColor=#82b366;" vertex="1" parent="1">
          <mxGeometry x="1027" y="1894" width="627" height="92" as="geometry" />
        </mxCell>
        <mxCell id="ilKDNeLHNMvyYoR8y2It-237" value="读业务方" style="text;html=1;strokeColor=none;fillColor=none;align=center;verticalAlign=middle;whiteSpace=wrap;rounded=0;fontSize=32;" vertex="1" parent="1">
          <mxGeometry x="838" y="1934" width="144" height="20" as="geometry" />
        </mxCell>
        <mxCell id="ilKDNeLHNMvyYoR8y2It-238" value="PSM" style="rounded=0;whiteSpace=wrap;html=1;fontSize=22;" vertex="1" parent="1">
          <mxGeometry x="1046" y="1911" width="149" height="60" as="geometry" />
        </mxCell>
        <mxCell id="ilKDNeLHNMvyYoR8y2It-239" value="PSM" style="rounded=0;whiteSpace=wrap;html=1;fontSize=22;" vertex="1" parent="1">
          <mxGeometry x="1236" y="1911" width="149" height="60" as="geometry" />
        </mxCell>
        <mxCell id="ilKDNeLHNMvyYoR8y2It-240" value="PSM" style="rounded=0;whiteSpace=wrap;html=1;fontSize=22;" vertex="1" parent="1">
          <mxGeometry x="1480" y="1911" width="149" height="60" as="geometry" />
        </mxCell>
        <mxCell id="ilKDNeLHNMvyYoR8y2It-241" value="..." style="text;html=1;strokeColor=none;fillColor=none;align=center;verticalAlign=middle;whiteSpace=wrap;rounded=0;fontSize=30;" vertex="1" parent="1">
          <mxGeometry x="1402" y="1931" width="61" height="20" as="geometry" />
        </mxCell>
        <mxCell id="ilKDNeLHNMvyYoR8y2It-248" style="edgeStyle=none;rounded=0;orthogonalLoop=1;jettySize=auto;html=1;exitX=1;exitY=0.5;exitDx=0;exitDy=0;exitPerimeter=0;entryX=0;entryY=0.5;entryDx=0;entryDy=0;fontSize=24;" edge="1" parent="1" source="ilKDNeLHNMvyYoR8y2It-243" target="ilKDNeLHNMvyYoR8y2It-245">
          <mxGeometry relative="1" as="geometry" />
        </mxCell>
        <mxCell id="ilKDNeLHNMvyYoR8y2It-243" value="Open&lt;br&gt;API" style="shape=or;whiteSpace=wrap;html=1;fontSize=18;" vertex="1" parent="1">
          <mxGeometry x="-251.5" y="1259" width="80" height="80" as="geometry" />
        </mxCell>
        <mxCell id="ilKDNeLHNMvyYoR8y2It-247" style="edgeStyle=none;rounded=0;orthogonalLoop=1;jettySize=auto;html=1;exitX=1;exitY=0.5;exitDx=0;exitDy=0;entryX=0;entryY=0.5;entryDx=0;entryDy=0;entryPerimeter=0;fontSize=24;" edge="1" parent="1" source="ilKDNeLHNMvyYoR8y2It-244" target="ilKDNeLHNMvyYoR8y2It-243">
          <mxGeometry relative="1" as="geometry" />
        </mxCell>
        <mxCell id="ilKDNeLHNMvyYoR8y2It-244" value="第三方" style="rounded=0;whiteSpace=wrap;html=1;fontSize=18;" vertex="1" parent="1">
          <mxGeometry x="-495" y="1269" width="120" height="60" as="geometry" />
        </mxCell>
        <mxCell id="ilKDNeLHNMvyYoR8y2It-249" style="edgeStyle=none;rounded=0;orthogonalLoop=1;jettySize=auto;html=1;exitX=1;exitY=0.5;exitDx=0;exitDy=0;entryX=0;entryY=0.5;entryDx=0;entryDy=0;fontSize=24;" edge="1" parent="1" source="ilKDNeLHNMvyYoR8y2It-245" target="ilKDNeLHNMvyYoR8y2It-246">
          <mxGeometry relative="1" as="geometry" />
        </mxCell>
        <mxCell id="ilKDNeLHNMvyYoR8y2It-245" value="中间服务" style="rounded=0;whiteSpace=wrap;html=1;fontSize=18;" vertex="1" parent="1">
          <mxGeometry x="-45" y="1274" width="180" height="50" as="geometry" />
        </mxCell>
        <mxCell id="ilKDNeLHNMvyYoR8y2It-246" value="操作日志服务" style="rounded=0;whiteSpace=wrap;html=1;fontSize=18;" vertex="1" parent="1">
          <mxGeometry x="256" y="1274" width="180" height="50" as="geometry" />
        </mxCell>
        <mxCell id="ilKDNeLHNMvyYoR8y2It-250" value="operator/ip&lt;br style=&quot;font-size: 19px&quot;&gt;/sys_origin" style="shape=document;whiteSpace=wrap;html=1;boundedLbl=1;fontSize=19;fillColor=#ffe6cc;strokeColor=#d79b00;" vertex="1" parent="1">
          <mxGeometry x="-179.25" y="1191" width="120" height="57" as="geometry" />
        </mxCell>
        <mxCell id="ilKDNeLHNMvyYoR8y2It-251" value="operator/ip&lt;br style=&quot;font-size: 19px&quot;&gt;/sys_origin" style="shape=document;whiteSpace=wrap;html=1;boundedLbl=1;fontSize=19;fillColor=#ffe6cc;strokeColor=#d79b00;" vertex="1" parent="1">
          <mxGeometry x="132" y="1191" width="120" height="57" as="geometry" />
        </mxCell>
        <mxCell id="ilKDNeLHNMvyYoR8y2It-252" style="edgeStyle=none;rounded=0;orthogonalLoop=1;jettySize=auto;html=1;exitX=1;exitY=0.5;exitDx=0;exitDy=0;exitPerimeter=0;entryX=0;entryY=0.5;entryDx=0;entryDy=0;fontSize=24;dashed=1;" edge="1" parent="1" source="ilKDNeLHNMvyYoR8y2It-253" target="ilKDNeLHNMvyYoR8y2It-257">
          <mxGeometry relative="1" as="geometry" />
        </mxCell>
        <mxCell id="ilKDNeLHNMvyYoR8y2It-253" value="接入层" style="shape=or;whiteSpace=wrap;html=1;fontSize=18;" vertex="1" parent="1">
          <mxGeometry x="-251.5" y="1643" width="80" height="80" as="geometry" />
        </mxCell>
        <mxCell id="ilKDNeLHNMvyYoR8y2It-254" style="edgeStyle=none;rounded=0;orthogonalLoop=1;jettySize=auto;html=1;exitX=1;exitY=0.5;exitDx=0;exitDy=0;entryX=0;entryY=0.5;entryDx=0;entryDy=0;entryPerimeter=0;fontSize=24;dashed=1;" edge="1" parent="1" source="ilKDNeLHNMvyYoR8y2It-255" target="ilKDNeLHNMvyYoR8y2It-253">
          <mxGeometry relative="1" as="geometry" />
        </mxCell>
        <mxCell id="ilKDNeLHNMvyYoR8y2It-262" style="edgeStyle=none;rounded=0;orthogonalLoop=1;jettySize=auto;html=1;exitX=0.7;exitY=0.1;exitDx=0;exitDy=0;entryX=0;entryY=0.5;entryDx=0;entryDy=0;fontSize=19;exitPerimeter=0;" edge="1" parent="1" source="ilKDNeLHNMvyYoR8y2It-253" target="ilKDNeLHNMvyYoR8y2It-261">
          <mxGeometry relative="1" as="geometry" />
        </mxCell>
        <mxCell id="ilKDNeLHNMvyYoR8y2It-255" value="第三方" style="rounded=0;whiteSpace=wrap;html=1;fontSize=18;" vertex="1" parent="1">
          <mxGeometry x="-495" y="1653" width="120" height="60" as="geometry" />
        </mxCell>
        <mxCell id="ilKDNeLHNMvyYoR8y2It-256" style="edgeStyle=none;rounded=0;orthogonalLoop=1;jettySize=auto;html=1;exitX=1;exitY=0.5;exitDx=0;exitDy=0;entryX=0;entryY=0.5;entryDx=0;entryDy=0;fontSize=24;dashed=1;" edge="1" parent="1" source="ilKDNeLHNMvyYoR8y2It-257" target="ilKDNeLHNMvyYoR8y2It-258">
          <mxGeometry relative="1" as="geometry" />
        </mxCell>
        <mxCell id="ilKDNeLHNMvyYoR8y2It-257" value="中间服务" style="rounded=0;whiteSpace=wrap;html=1;fontSize=18;" vertex="1" parent="1">
          <mxGeometry x="-45" y="1658" width="180" height="50" as="geometry" />
        </mxCell>
        <mxCell id="ilKDNeLHNMvyYoR8y2It-258" value="操作日志服务" style="rounded=0;whiteSpace=wrap;html=1;fontSize=18;" vertex="1" parent="1">
          <mxGeometry x="256" y="1658" width="180" height="50" as="geometry" />
        </mxCell>
        <mxCell id="ilKDNeLHNMvyYoR8y2It-259" value="operator/ip&lt;br style=&quot;font-size: 19px&quot;&gt;/sys_origin" style="shape=document;whiteSpace=wrap;html=1;boundedLbl=1;fontSize=19;fillColor=#ffe6cc;strokeColor=#d79b00;" vertex="1" parent="1">
          <mxGeometry x="-212" y="1527" width="120" height="57" as="geometry" />
        </mxCell>
        <mxCell id="ilKDNeLHNMvyYoR8y2It-263" style="edgeStyle=none;rounded=0;orthogonalLoop=1;jettySize=auto;html=1;exitX=1;exitY=0.5;exitDx=0;exitDy=0;entryX=0.5;entryY=0;entryDx=0;entryDy=0;fontSize=19;" edge="1" parent="1" source="ilKDNeLHNMvyYoR8y2It-261" target="ilKDNeLHNMvyYoR8y2It-258">
          <mxGeometry relative="1" as="geometry" />
        </mxCell>
        <mxCell id="ilKDNeLHNMvyYoR8y2It-261" value="Context 中心&lt;br&gt;（账户中心）" style="rounded=0;whiteSpace=wrap;html=1;fontSize=18;" vertex="1" parent="1">
          <mxGeometry x="-22" y="1502" width="180" height="50" as="geometry" />
        </mxCell>
        <mxCell id="ilKDNeLHNMvyYoR8y2It-264" value="operator/ip&lt;br style=&quot;font-size: 19px&quot;&gt;/sys_origin" style="shape=document;whiteSpace=wrap;html=1;boundedLbl=1;fontSize=19;fillColor=#ffe6cc;strokeColor=#d79b00;" vertex="1" parent="1">
          <mxGeometry x="249" y="1537" width="120" height="57" as="geometry" />
        </mxCell>
        <mxCell id="ilKDNeLHNMvyYoR8y2It-274" value="操作日志服务" style="text;html=1;strokeColor=none;fillColor=none;align=center;verticalAlign=middle;whiteSpace=wrap;rounded=0;dashed=1;fontSize=22;" vertex="1" parent="1">
          <mxGeometry x="546" y="590" width="180" height="20" as="geometry" />
        </mxCell>
        <mxCell id="ilKDNeLHNMvyYoR8y2It-283" style="edgeStyle=none;rounded=0;orthogonalLoop=1;jettySize=auto;html=1;exitX=0.5;exitY=1;exitDx=0;exitDy=0;entryX=0.5;entryY=0;entryDx=0;entryDy=0;fontSize=24;" edge="1" parent="1" source="ilKDNeLHNMvyYoR8y2It-275" target="ilKDNeLHNMvyYoR8y2It-277">
          <mxGeometry relative="1" as="geometry" />
        </mxCell>
        <mxCell id="ilKDNeLHNMvyYoR8y2It-317" style="edgeStyle=none;rounded=0;orthogonalLoop=1;jettySize=auto;html=1;exitX=1;exitY=0.5;exitDx=0;exitDy=0;entryX=0.079;entryY=0.308;entryDx=0;entryDy=0;entryPerimeter=0;fontSize=20;" edge="1" parent="1" source="ilKDNeLHNMvyYoR8y2It-275" target="ilKDNeLHNMvyYoR8y2It-316">
          <mxGeometry relative="1" as="geometry" />
        </mxCell>
        <mxCell id="ilKDNeLHNMvyYoR8y2It-275" value="写入质检" style="rounded=0;whiteSpace=wrap;html=1;fontSize=18;fillColor=#e1d5e7;strokeColor=#9673a6;" vertex="1" parent="1">
          <mxGeometry x="311" y="400" width="180" height="50" as="geometry" />
        </mxCell>
        <mxCell id="ilKDNeLHNMvyYoR8y2It-313" style="edgeStyle=none;rounded=0;orthogonalLoop=1;jettySize=auto;html=1;exitX=0.5;exitY=1;exitDx=0;exitDy=0;fontSize=24;" edge="1" parent="1" source="ilKDNeLHNMvyYoR8y2It-276" target="ilKDNeLHNMvyYoR8y2It-275">
          <mxGeometry relative="1" as="geometry" />
        </mxCell>
        <mxCell id="ilKDNeLHNMvyYoR8y2It-330" style="edgeStyle=orthogonalEdgeStyle;rounded=0;orthogonalLoop=1;jettySize=auto;html=1;exitX=1;exitY=0.75;exitDx=0;exitDy=0;entryX=1;entryY=0.5;entryDx=0;entryDy=0;fontSize=20;" edge="1" parent="1" source="ilKDNeLHNMvyYoR8y2It-276" target="ilKDNeLHNMvyYoR8y2It-324">
          <mxGeometry relative="1" as="geometry">
            <Array as="points">
              <mxPoint x="783" y="232" />
              <mxPoint x="783" y="724" />
            </Array>
          </mxGeometry>
        </mxCell>
        <mxCell id="ilKDNeLHNMvyYoR8y2It-276" value="注册配置" style="rounded=0;whiteSpace=wrap;html=1;fontSize=24;fillColor=#e1d5e7;strokeColor=#9673a6;" vertex="1" parent="1">
          <mxGeometry x="289.5" y="179.5" width="223" height="70.5" as="geometry" />
        </mxCell>
        <mxCell id="ilKDNeLHNMvyYoR8y2It-285" style="edgeStyle=none;rounded=0;orthogonalLoop=1;jettySize=auto;html=1;exitX=0.5;exitY=1;exitDx=0;exitDy=0;entryX=0.5;entryY=0;entryDx=0;entryDy=0;fontSize=24;" edge="1" parent="1" source="ilKDNeLHNMvyYoR8y2It-277" target="ilKDNeLHNMvyYoR8y2It-278">
          <mxGeometry relative="1" as="geometry" />
        </mxCell>
        <mxCell id="ilKDNeLHNMvyYoR8y2It-277" value="日志入库" style="rounded=0;whiteSpace=wrap;html=1;fontSize=18;" vertex="1" parent="1">
          <mxGeometry x="311" y="491" width="180" height="50" as="geometry" />
        </mxCell>
        <mxCell id="ilKDNeLHNMvyYoR8y2It-322" style="edgeStyle=none;rounded=0;orthogonalLoop=1;jettySize=auto;html=1;exitX=0.5;exitY=1;exitDx=0;exitDy=0;entryX=0.5;entryY=0;entryDx=0;entryDy=0;fontSize=20;" edge="1" parent="1" source="ilKDNeLHNMvyYoR8y2It-278" target="ilKDNeLHNMvyYoR8y2It-321">
          <mxGeometry relative="1" as="geometry" />
        </mxCell>
        <mxCell id="ilKDNeLHNMvyYoR8y2It-278" value="数据存储" style="shape=cylinder;whiteSpace=wrap;html=1;boundedLbl=1;backgroundOutline=1;fontSize=18;" vertex="1" parent="1">
          <mxGeometry x="321" y="585" width="160" height="65" as="geometry" />
        </mxCell>
        <mxCell id="ilKDNeLHNMvyYoR8y2It-284" value="质检tag" style="shape=document;whiteSpace=wrap;html=1;boundedLbl=1;fillColor=#CCFFFF;fontSize=24;size=0.2857142857142884;" vertex="1" parent="1">
          <mxGeometry x="512.5" y="381" width="99" height="42" as="geometry" />
        </mxCell>
        <mxCell id="ilKDNeLHNMvyYoR8y2It-286" value="psm/module/fun" style="shape=document;whiteSpace=wrap;html=1;boundedLbl=1;fillColor=#CCFFFF;fontSize=24;" vertex="1" parent="1">
          <mxGeometry x="80" y="388" width="196" height="53" as="geometry" />
        </mxCell>
        <mxCell id="ilKDNeLHNMvyYoR8y2It-297" value="Module" style="whiteSpace=wrap;html=1;shape=partialRectangle;top=0;left=0;bottom=1;right=0;points=[[0,1],[1,1]];strokeColor=#000000;fillColor=none;align=center;verticalAlign=bottom;routingCenterY=0.5;snapToPoint=1;container=1;recursiveResize=0;autosize=1;treeFolding=1;treeMoving=1;fontSize=24;" vertex="1" parent="1">
          <mxGeometry x="426" y="64" width="106" height="33" as="geometry" />
        </mxCell>
        <mxCell id="ilKDNeLHNMvyYoR8y2It-298" value="" style="edgeStyle=entityRelationEdgeStyle;startArrow=none;endArrow=none;segment=10;curved=1;fontSize=24;exitX=1;exitY=0;exitDx=0;exitDy=0;" edge="1" target="ilKDNeLHNMvyYoR8y2It-297" parent="1" source="ilKDNeLHNMvyYoR8y2It-299">
          <mxGeometry relative="1" as="geometry">
            <mxPoint x="392" y="95" as="sourcePoint" />
          </mxGeometry>
        </mxCell>
        <mxCell id="ilKDNeLHNMvyYoR8y2It-299" value="PSM" style="text;html=1;strokeColor=none;fillColor=none;align=center;verticalAlign=middle;whiteSpace=wrap;rounded=0;dashed=1;fontSize=22;" vertex="1" parent="1">
          <mxGeometry x="294" y="77" width="97" height="20" as="geometry" />
        </mxCell>
        <mxCell id="ilKDNeLHNMvyYoR8y2It-301" value="Module" style="whiteSpace=wrap;html=1;shape=partialRectangle;top=0;left=0;bottom=1;right=0;points=[[0,1],[1,1]];strokeColor=#000000;fillColor=none;align=center;verticalAlign=bottom;routingCenterY=0.5;snapToPoint=1;container=1;recursiveResize=0;autosize=1;treeFolding=1;treeMoving=1;fontSize=24;" vertex="1" parent="1">
          <mxGeometry x="423" y="112" width="106" height="33" as="geometry" />
        </mxCell>
        <mxCell id="ilKDNeLHNMvyYoR8y2It-302" value="" style="edgeStyle=entityRelationEdgeStyle;startArrow=none;endArrow=none;segment=10;curved=1;fontSize=24;exitX=1;exitY=0.25;exitDx=0;exitDy=0;" edge="1" target="ilKDNeLHNMvyYoR8y2It-301" parent="1" source="ilKDNeLHNMvyYoR8y2It-299">
          <mxGeometry relative="1" as="geometry">
            <mxPoint x="412" y="200.99999999999997" as="sourcePoint" />
          </mxGeometry>
        </mxCell>
        <mxCell id="ilKDNeLHNMvyYoR8y2It-305" value="Function" style="whiteSpace=wrap;html=1;shape=partialRectangle;top=0;left=0;bottom=1;right=0;points=[[0,1],[1,1]];strokeColor=#000000;fillColor=none;align=center;verticalAlign=bottom;routingCenterY=0.5;snapToPoint=1;container=1;recursiveResize=0;autosize=1;treeFolding=1;treeMoving=1;fontSize=24;" vertex="1" parent="1">
          <mxGeometry x="560" y="133.99999999999997" width="119" height="33" as="geometry" />
        </mxCell>
        <mxCell id="ilKDNeLHNMvyYoR8y2It-306" value="" style="edgeStyle=entityRelationEdgeStyle;startArrow=none;endArrow=none;segment=10;curved=1;fontSize=24;" edge="1" parent="1" target="ilKDNeLHNMvyYoR8y2It-305">
          <mxGeometry relative="1" as="geometry">
            <mxPoint x="535" y="142.24999999999997" as="sourcePoint" />
          </mxGeometry>
        </mxCell>
        <mxCell id="ilKDNeLHNMvyYoR8y2It-307" value="Function" style="whiteSpace=wrap;html=1;shape=partialRectangle;top=0;left=0;bottom=1;right=0;points=[[0,1],[1,1]];strokeColor=#000000;fillColor=none;align=center;verticalAlign=bottom;routingCenterY=0.5;snapToPoint=1;container=1;recursiveResize=0;autosize=1;treeFolding=1;treeMoving=1;fontSize=24;" vertex="1" parent="1">
          <mxGeometry x="560" y="178.99999999999997" width="119" height="33" as="geometry" />
        </mxCell>
        <mxCell id="ilKDNeLHNMvyYoR8y2It-308" value="" style="edgeStyle=entityRelationEdgeStyle;startArrow=none;endArrow=none;segment=10;curved=1;fontSize=24;exitX=1;exitY=1;exitDx=0;exitDy=0;" edge="1" parent="1" target="ilKDNeLHNMvyYoR8y2It-307" source="ilKDNeLHNMvyYoR8y2It-301">
          <mxGeometry relative="1" as="geometry">
            <mxPoint x="551" y="215.99999999999997" as="sourcePoint" />
          </mxGeometry>
        </mxCell>
        <mxCell id="ilKDNeLHNMvyYoR8y2It-309" value="owners" style="text;html=1;strokeColor=none;fillColor=none;align=center;verticalAlign=middle;whiteSpace=wrap;rounded=0;dashed=1;fontSize=22;" vertex="1" parent="1">
          <mxGeometry x="294" y="114" width="105" height="20" as="geometry" />
        </mxCell>
        <mxCell id="ilKDNeLHNMvyYoR8y2It-310" value="owners" style="text;html=1;strokeColor=none;fillColor=none;align=center;verticalAlign=middle;whiteSpace=wrap;rounded=0;dashed=1;fontSize=22;" vertex="1" parent="1">
          <mxGeometry x="535" y="64" width="105" height="20" as="geometry" />
        </mxCell>
        <mxCell id="ilKDNeLHNMvyYoR8y2It-329" style="edgeStyle=orthogonalEdgeStyle;curved=1;rounded=0;orthogonalLoop=1;jettySize=auto;html=1;exitX=0.5;exitY=0;exitDx=0;exitDy=0;entryX=0.75;entryY=0;entryDx=0;entryDy=0;fontSize=20;dashed=1;strokeWidth=2;" edge="1" parent="1" source="ilKDNeLHNMvyYoR8y2It-311" target="ilKDNeLHNMvyYoR8y2It-12">
          <mxGeometry relative="1" as="geometry">
            <Array as="points">
              <mxPoint x="731" y="20" />
              <mxPoint x="-59" y="20" />
            </Array>
          </mxGeometry>
        </mxCell>
        <mxCell id="ilKDNeLHNMvyYoR8y2It-311" value="owners" style="text;html=1;strokeColor=none;fillColor=none;align=center;verticalAlign=middle;whiteSpace=wrap;rounded=0;dashed=1;fontSize=22;" vertex="1" parent="1">
          <mxGeometry x="679" y="136.49999999999997" width="105" height="20" as="geometry" />
        </mxCell>
        <mxCell id="ilKDNeLHNMvyYoR8y2It-312" value="owners" style="text;html=1;strokeColor=none;fillColor=none;align=center;verticalAlign=middle;whiteSpace=wrap;rounded=0;dashed=1;fontSize=22;" vertex="1" parent="1">
          <mxGeometry x="679" y="188.99999999999997" width="105" height="20" as="geometry" />
        </mxCell>
        <mxCell id="ilKDNeLHNMvyYoR8y2It-314" value="diff keys" style="text;html=1;strokeColor=none;fillColor=none;align=center;verticalAlign=middle;whiteSpace=wrap;rounded=0;dashed=1;fontSize=22;" vertex="1" parent="1">
          <mxGeometry x="784" y="136.49999999999997" width="105" height="20" as="geometry" />
        </mxCell>
        <mxCell id="ilKDNeLHNMvyYoR8y2It-315" value="diff keys" style="text;html=1;strokeColor=none;fillColor=none;align=center;verticalAlign=middle;whiteSpace=wrap;rounded=0;dashed=1;fontSize=22;" vertex="1" parent="1">
          <mxGeometry x="784" y="191.99999999999997" width="105" height="20" as="geometry" />
        </mxCell>
        <mxCell id="ilKDNeLHNMvyYoR8y2It-316" value="反馈owner&lt;br style=&quot;font-size: 20px&quot;&gt;job" style="ellipse;shape=umlControl;whiteSpace=wrap;html=1;fillColor=#e1d5e7;fontSize=20;strokeWidth=4;strokeColor=#9673a6;" vertex="1" parent="1">
          <mxGeometry x="614" y="386.5" width="118" height="131" as="geometry" />
        </mxCell>
        <mxCell id="ilKDNeLHNMvyYoR8y2It-321" value="查询" style="rounded=0;whiteSpace=wrap;html=1;fontSize=18;" vertex="1" parent="1">
          <mxGeometry x="311" y="698.5" width="180" height="50" as="geometry" />
        </mxCell>
        <mxCell id="ilKDNeLHNMvyYoR8y2It-326" style="edgeStyle=orthogonalEdgeStyle;rounded=0;orthogonalLoop=1;jettySize=auto;html=1;exitX=0;exitY=0.5;exitDx=0;exitDy=0;entryX=1;entryY=0.5;entryDx=0;entryDy=0;fontSize=20;" edge="1" parent="1" source="ilKDNeLHNMvyYoR8y2It-324" target="ilKDNeLHNMvyYoR8y2It-321">
          <mxGeometry relative="1" as="geometry" />
        </mxCell>
        <mxCell id="ilKDNeLHNMvyYoR8y2It-324" value="关联owners" style="rounded=0;whiteSpace=wrap;html=1;fontSize=18;fillColor=#e1d5e7;strokeColor=#9673a6;" vertex="1" parent="1">
          <mxGeometry x="552" y="698.5" width="180" height="50" as="geometry" />
        </mxCell>
        <mxCell id="ilKDNeLHNMvyYoR8y2It-327" style="edgeStyle=orthogonalEdgeStyle;rounded=0;orthogonalLoop=1;jettySize=auto;html=1;exitX=0.48;exitY=0.136;exitDx=0;exitDy=0;fontSize=20;exitPerimeter=0;elbow=vertical;curved=1;dashed=1;strokeWidth=2;" edge="1" parent="1" source="ilKDNeLHNMvyYoR8y2It-316">
          <mxGeometry relative="1" as="geometry">
            <mxPoint x="895.6800000000001" y="427" as="sourcePoint" />
            <mxPoint x="732" y="209" as="targetPoint" />
            <Array as="points">
              <mxPoint x="732" y="404" />
            </Array>
          </mxGeometry>
        </mxCell>
        <mxCell id="ilKDNeLHNMvyYoR8y2It-328" value="lark" style="text;html=1;align=center;verticalAlign=middle;resizable=0;points=[];labelBackgroundColor=#ffffff;fontSize=20;" vertex="1" connectable="0" parent="ilKDNeLHNMvyYoR8y2It-327">
          <mxGeometry x="0.3819" y="3" relative="1" as="geometry">
            <mxPoint as="offset" />
          </mxGeometry>
        </mxCell>
        <mxCell id="ilKDNeLHNMvyYoR8y2It-331" value="AdTrace平台" style="rounded=0;whiteSpace=wrap;html=1;fontSize=22;" vertex="1" parent="1">
          <mxGeometry x="1887" y="1283" width="164" height="51" as="geometry" />
        </mxCell>
      </root>
    </mxGraphModel>
  </diagram>
</mxfile>
